<svg width="16" height="18" viewBox="0 0 16 18" fill="none" xmlns="http://www.w3.org/2000/svg">
<path d="M13.8203 8.46873L2.57812 1.59373C2.48349 1.53536 2.37499 1.50328 2.26382 1.50082C2.15265 1.49837 2.04284 1.52561 1.94571 1.57975C1.84859 1.63388 1.76766 1.71295 1.71128 1.80879C1.65491 1.90464 1.62512 2.01379 1.625 2.12498V15.875C1.62512 15.9862 1.65491 16.0953 1.71128 16.1912C1.76766 16.287 1.84859 16.3661 1.94571 16.4202C2.04284 16.4744 2.15265 16.5016 2.26382 16.4991C2.37499 16.4967 2.48349 16.4646 2.57812 16.4062L13.8203 9.53123C13.9126 9.47664 13.9891 9.39894 14.0423 9.30578C14.0954 9.21263 14.1233 9.10723 14.1233 8.99998C14.1233 8.89274 14.0954 8.78734 14.0423 8.69418C13.9891 8.60103 13.9126 8.52332 13.8203 8.46873Z" fill="#FCFCFC" stroke="#FCFCFC" stroke-width="2" stroke-linecap="round" stroke-linejoin="round"/>
</svg>
